# xmcd CD database file
#
# Track frame offsets:
#	150
#	10242
#	20387
#	35334
#	54160
#	64129
#	80771
#	86490
#	97875
#	113992
#	130945
#	139723
#	158412
#
# Disc length: 2234 seconds
#
# Revision: 0
# Processed by: cddbd v1.5.2PL0 Copyright (c) Steve Scherf et al.
# Submitted via: CDex 1.70beta2
#
DISCID=9808b80d
DTITLE=Pantoflaci - Dejte nam RUM!
DYEAR=1997
DGENRE=Country
TTITLE0=Dejte mu rum
TTITLE1=Podbel
TTITLE2=Kdyz nas tata hral
TTITLE3=Sedm zlutejch kaminku
TTITLE4=Rychlejsi kone
TTITLE5=Frankie Dlouhan
TTITLE6=Jesse James
TTITLE7=Lakani
TTITLE8=John Hardy
TTITLE9=Tulacke blues
TTITLE10=Prazdny nadrazi
TTITLE11=Hardy
TTITLE12=Instrumentalka
EXTD=YEAR: 1997
EXTT0=
EXTT1=
EXTT2=
EXTT3=
EXTT4=
EXTT5=
EXTT6=
EXTT7=
EXTT8=
EXTT9=
EXTT10=
EXTT11=
EXTT12=
PLAYORDER=
